<!--
@Author: admin
@Date:   2017-05-08T10:07:05+02:00
@Last modified by:   admin
@Last modified time: 2017-05-10T10:48:49+02:00
-->

<svg width="69px" height="69px" viewBox="0 0 69 69" version="1.1" xmlns="http://www.w3.org/2000/svg" xmlns:xlink="http://www.w3.org/1999/xlink">
    <!-- Generator: Sketch 43.2 (39069) - http://www.bohemiancoding.com/sketch -->
    <desc>Created with Sketch.</desc>
    <defs></defs>
    <g id="Page-1" stroke="none" stroke-width="1" fill="none" fill-rule="evenodd">
        <g id="Mobile-Portrait" transform="translate(-8.000000, -468.000000)">
            <g id="FreetimeIconOff" transform="translate(10.000000, 470.000000)">
                <circle id="Oval-2-Copy-10" stroke="#F2E42D" stroke-width="3" fill="#FFFDE2" cx="32.4225526" cy="32.4225526" r="32.4225526"></circle>
                <path d="M47.8853108,33.0876986 C47.8853108,33.0876986 49.9840377,31.2154512 51.5883089,29.7731116 C53.19258,28.3307719 52.8901639,28.5469017 54.7152366,26.5030155 C56.5403092,24.4591293 56.5528187,23.7447444 56.5710757,22.2316729 C56.5893328,20.7186013 55.898124,19.1529043 54.7152366,18.3426234 C53.5323491,17.5323426 52.4813277,17.5636424 51.4167103,17.5323426 C50.3520929,17.5010427 50.1452017,17.4652935 49.2229288,18.1811492 C48.300656,18.8970048 47.9267704,20.2221259 47.9267704,20.2221259 C47.9267704,20.2221259 47.539902,19.1989189 46.5818787,18.4968241 C45.6238554,17.7947293 45.5315109,17.6303481 44.2565036,17.5323426 C42.9814963,17.434337 42.5336777,17.6676015 41.6234544,18.1156866 C40.7132311,18.5637717 40.6334879,18.6316061 40.1183574,19.1832553 C39.6032269,19.7349046 39.4329118,20.047839 39.2020675,20.7087308 C38.9712232,21.3696227 39.0019596,23.5412382 39.4610083,24.6299374 C39.9200569,25.7186367 40.8145063,26.6677596 40.8145063,26.6677596 C40.8145063,26.6677596 41.1575906,27.0205348 43.0912702,28.9250079 C45.0249498,30.829481 47.8853108,33.0876986 47.8853108,33.0876986 Z" id="Path-2" fill="#F2E42D"></path>
                <path d="M31.6530612,33 L31.6530612,7.40816327" id="Line" stroke="#F2E42D" stroke-width="3" stroke-linecap="square"></path>
                <polygon id="Triangle-3" stroke="#F2E42D" stroke-width="3" fill="#F2E42D" points="31.6530612 4.04081633 33.6734694 8.08163265 29.6326531 8.08163265"></polygon>
                <polygon id="Triangle-3-Copy" stroke="#F2E42D" stroke-width="3" fill="#F2E42D" transform="translate(53.997553, 47.262860) rotate(125.000000) translate(-53.997553, -47.262860) " points="53.9975535 45.2424514 56.0179616 49.2832677 51.9771453 49.2832677"></polygon>
                <path d="M32.3265306,33.6734694 L54.029639,47.2350767" id="Line-Copy-4" stroke="#F2E42D" stroke-width="3" stroke-linecap="square"></path>
            </g>
        </g>
    </g>
</svg>
