<!--
@Author: admin
@Date:   2017-05-08T10:10:06+02:00
@Last modified by:   admin
@Last modified time: 2017-05-10T10:31:46+02:00
-->


<svg width="25px" height="25px" viewBox="0 0 25 25" version="1.1" xmlns="http://www.w3.org/2000/svg" xmlns:xlink="http://www.w3.org/1999/xlink">
    <!-- Generator: Sketch 43.2 (39069) - http://www.bohemiancoding.com/sketch -->
    <desc>Created with Sketch.</desc>
    <defs></defs>
    <g id="Page-1" stroke="none" stroke-width="1" fill="none" fill-rule="evenodd">
        <g id="Mobile-Portrait" transform="translate(-262.000000, -328.000000)">
            <g id="FreetimeIconSmallOff" transform="translate(264.000000, 330.000000)">
                <polygon id="Path-3" fill="#FFFBC2" points="10.1109794 10.7036426 10.0760324 0.134121094 14.0857282 1.13931152 17.6068987 3.26063965 19.6956613 6.05698242 20.4976632 8.73325195 20.5977958 11.1995215 20.1992536 13.8312891 18.8925084 15.9971191 18.7795061 16.1353418"></polygon>
                <ellipse id="Oval-2-Copy-20" stroke="#F2E42D" stroke-width="3" fill="#FFFDE2" cx="10.3162667" cy="10.5299414" rx="10.3162667" ry="10.1099414"></ellipse>
                <path d="M15.2362352,10.737346 C15.2362352,10.737346 15.904012,10.1535453 16.4144619,9.70379752 C16.9249118,9.25404979 16.8286885,9.32144298 17.4093934,8.6841221 C17.9900984,8.04680122 17.9940787,7.82404302 17.9998877,7.35223981 C18.0056968,6.88043659 17.7857667,6.3922238 17.4093934,6.13956349 C17.0330202,5.88690318 16.6986043,5.89666304 16.3598624,5.88690318 C16.0211205,5.87714333 15.9552914,5.86599607 15.661841,6.08921287 C15.3683905,6.31242968 15.2494269,6.72562653 15.2494269,6.72562653 C15.2494269,6.72562653 15.1263325,6.40657197 14.8215069,6.18764606 C14.5166813,5.96872015 14.4872989,5.9174631 14.0816148,5.88690318 C13.6759306,5.85634327 13.5334429,5.92907938 13.2438264,6.06880046 C12.9542099,6.20852153 12.9288371,6.22967354 12.7649319,6.4016878 C12.6010267,6.57370206 12.5468356,6.67128069 12.4733851,6.8773588 C12.3999347,7.08343691 12.4097144,7.76058609 12.5557754,8.10006231 C12.7018363,8.43953852 12.9864338,8.73549232 12.9864338,8.73549232 C12.9864338,8.73549232 13.095597,8.84549405 13.7108587,9.43934338 C14.3261204,10.0331927 15.2362352,10.737346 15.2362352,10.737346 Z" id="Path-2" fill="#F2E42D"></path>
                <path d="M9.91666667,10.71 L9.91666667,2.73" id="Line" stroke="#F2E42D" stroke-width="3" stroke-linecap="square"></path>
                <polygon id="Triangle-3" stroke="#F2E42D" stroke-width="3" fill="#F2E42D" points="10.0714286 1.68 10.7142857 2.94 9.42857143 2.94"></polygon>
                <polygon id="Triangle-3-Copy" stroke="#F2E42D" stroke-width="3" fill="#F2E42D" transform="translate(17.181040, 15.157419) rotate(125.000000) translate(-17.181040, -15.157419) " points="17.1810397 14.5274189 17.8238969 15.7874189 16.5381826 15.7874189"></polygon>
                <path d="M10.2857143,10.92 L17.1912488,15.1487557" id="Line-Copy-4" stroke="#F2E42D" stroke-width="3" stroke-linecap="square"></path>
            </g>
        </g>
    </g>
</svg>
