<!--
@Author: admin
@Date:   2017-05-09T11:51:26+02:00
@Last modified by:   admin
@Last modified time: 2017-05-10T11:59:08+02:00
-->



<svg width="67px" height="76px" viewBox="0 0 67 76" version="1.1" xmlns="http://www.w3.org/2000/svg" xmlns:xlink="http://www.w3.org/1999/xlink">
    <!-- Generator: Sketch 43.2 (39069) - http://www.bohemiancoding.com/sketch -->
    <desc>Created with Sketch.</desc>
    <defs>
        <linearGradient x1="50%" y1="33.6830357%" x2="50%" y2="142.354911%" id="linearGradient-1">
            <stop stop-color="#B8E986" offset="0%"></stop>
            <stop stop-color="#75A73B" offset="100%"></stop>
        </linearGradient>
    </defs>
    <g id="Page-1" stroke="none" stroke-width="1" fill="none" fill-rule="evenodd">
        <g id="Mobile-Portrait" transform="translate(-68.000000, -88.000000)">
            <g id="Group" transform="translate(70.000000, 90.000000)">
                <g id="happyBubbleIcon" fill="#FFFFFF">
                    <g id="MoodBubbleLeftSmall" transform="translate(31.500000, 36.500000) scale(-1, 1) translate(-31.500000, -36.500000) ">
                        <path d="M23.73282,51.787543 C-4.33560212,82.383248 30.9239102,62.1220333 40.949251,55.3798854" id="Path-2-Copy" stroke="#D2D2D2" stroke-width="3" transform="translate(27.025627, 60.000000) rotate(-23.000000) translate(-27.025627, -60.000000) "></path>
                        <circle id="Oval" stroke="#D2D2D2" stroke-width="3" cx="31.5" cy="31.5" r="31.5"></circle>
                        <polygon id="Triangle" points="18.359375 70.7336426 20 57 29.9719238 60.8503418"></polygon>
                    </g>
                    <g id="MoodBubbleLeftSmall-Copy" transform="translate(31.500000, 36.500000) scale(-1, 1) translate(-31.500000, -36.500000) ">
                        <path d="M23.73282,51.787543 C-4.33560212,82.383248 30.9239102,62.1220333 40.949251,55.3798854" id="Path-2-Copy" stroke="#D2D2D2" stroke-width="3" transform="translate(27.025627, 60.000000) rotate(-23.000000) translate(-27.025627, -60.000000) "></path>
                        <circle id="Oval" stroke="#D2D2D2" stroke-width="3" cx="31.5" cy="31.5" r="31.5"></circle>
                        <polygon id="Triangle" points="18.359375 70.7336426 20 57 29.9719238 60.8503418"></polygon>
                    </g>
                </g>
                <g id="HappyIconSmall-Copy-2" transform="translate(14.000000, 14.000000)">
                    <circle id="Oval-2-Copy-8" stroke="#75A73B" stroke-width="3" fill="url(#linearGradient-1)" cx="17.5" cy="17.5" r="17.5"></circle>
                    <path d="M25,28 C25,23.581722 21.6421356,20 17.5,20 C13.3578644,20 10,23.581722 10,28" id="Oval-2-Copy-7" stroke="#75A73B" stroke-width="3" transform="translate(17.500000, 24.000000) scale(1, -1) translate(-17.500000, -24.000000) "></path>
                    <ellipse id="Oval-3-Copy-9" fill="#75A73B" cx="7.5" cy="14.5" rx="2.5" ry="3.5"></ellipse>
                    <ellipse id="Oval-3-Copy-8" fill="#75A73B" cx="27.5" cy="14.5" rx="2.5" ry="3.5"></ellipse>
                </g>
            </g>
        </g>
    </g>
</svg>
