<!--
@Author: admin
@Date:   2017-05-08T10:09:46+02:00
@Last modified by:   admin
@Last modified time: 2017-05-08T10:09:53+02:00
-->




<svg width="33px" height="29px" viewBox="0 0 33 29" version="1.1" xmlns="http://www.w3.org/2000/svg" xmlns:xlink="http://www.w3.org/1999/xlink">
    <!-- Generator: Sketch 43.2 (39069) - http://www.bohemiancoding.com/sketch -->
    <desc>Created with Sketch.</desc>
    <defs></defs>
    <g id="Page-1" stroke="none" stroke-width="1" fill="none" fill-rule="evenodd">
        <g id="Mobile-Portrait" transform="translate(-148.000000, -559.000000)">
            <g id="SocialIconSmallOff" transform="translate(149.000000, 560.000000)">
                <ellipse id="Oval-2-Copy-15" stroke="#F2E42D" fill="#F2E42D" cx="7.8856223" cy="8.3575415" rx="7.70479257" ry="7.91147461"></ellipse>
                <path d="M11.4078132,9.93983643 C11.4078132,11.9372704 9.92943327,13.5565105 8.10575923,13.5565105 C6.28208518,13.5565105 4.80370527,11.9372704 4.80370527,9.93983643 L11.4078132,9.93983643 Z" id="Oval-2-Copy-14" stroke="#FFFDE2"></path>
                <ellipse id="Oval-3-Copy-15" fill="#FFFDE2" cx="3.59295215" cy="7.56639404" rx="1.10068465" ry="1.58229492"></ellipse>
                <ellipse id="Oval-3-Copy-14" fill="#FFFDE2" cx="12.068224" cy="7.56639404" rx="1.10068465" ry="1.58229492"></ellipse>
                <ellipse id="Oval-2-Copy-17" stroke="#F2E42D" fill="#F2E42D" cx="23.2952074" cy="9.14868896" rx="7.70479257" ry="7.91147461"></ellipse>
                <path d="M26.8173983,10.7309839 C26.8173983,12.7284178 25.3390184,14.347658 23.5153444,14.347658 C21.6916703,14.347658 20.2132904,12.7284178 20.2132904,10.7309839 L26.8173983,10.7309839 Z" id="Oval-2-Copy-16" stroke="#FFFDE2"></path>
                <ellipse id="Oval-2-Copy-13" stroke="#F2E42D" fill="#F2E42D" cx="14.8199356" cy="18.6424585" rx="7.70479257" ry="7.91147461"></ellipse>
                <path d="M18.3421265,20.2247534 C18.3421265,22.2221874 16.8637466,23.8414275 15.0400725,23.8414275 C13.2163985,23.8414275 11.7380186,22.2221874 11.7380186,20.2247534 L18.3421265,20.2247534 Z" id="Oval-2-Copy-12" stroke="#FFFDE2"></path>
                <ellipse id="Oval-3-Copy-13" fill="#FFFDE2" cx="10.5272655" cy="17.851311" rx="1.10068465" ry="1.58229492"></ellipse>
                <ellipse id="Oval-3-Copy-12" fill="#FFFDE2" cx="19.0025373" cy="17.851311" rx="1.10068465" ry="1.58229492"></ellipse>
                <ellipse id="Oval-3-Copy-17" fill="#FFFDE2" cx="19.0025373" cy="8.3575415" rx="1.10068465" ry="1.58229492"></ellipse>
                <ellipse id="Oval-3-Copy-16" fill="#FFFDE2" cx="27.4778091" cy="8.3575415" rx="1.10068465" ry="1.58229492"></ellipse>
            </g>
        </g>
    </g>
</svg>
