<!--
@Author: admin
@Date:   2017-05-08T10:05:40+02:00
@Last modified by:   admin
@Last modified time: 2017-05-08T10:05:55+02:00
-->




<svg width="58px" height="48px" viewBox="0 0 58 48" version="1.1" xmlns="http://www.w3.org/2000/svg" xmlns:xlink="http://www.w3.org/1999/xlink">
    <!-- Generator: Sketch 43.2 (39069) - http://www.bohemiancoding.com/sketch -->
    <desc>Created with Sketch.</desc>
    <defs></defs>
    <g id="Page-1" stroke="none" stroke-width="1" fill="none" fill-rule="evenodd">
        <g id="Mobile-Portrait" transform="translate(-13.000000, -197.000000)">
            <g id="SocialIconOff" transform="translate(14.000000, 197.000000)">
                <ellipse id="Oval-2-Copy-15" stroke="#F2E42D" fill="#F2E42D" cx="14.2449951" cy="14.8578516" rx="13.918335" ry="14.0648437"></ellipse>
                <path d="M20.6076625,17.6708203 C20.6076625,21.221814 17.9370407,24.1004632 14.6426618,24.1004632 C11.3482829,24.1004632 8.67766113,21.221814 8.67766113,17.6708203 L20.6076625,17.6708203 Z" id="Oval-2-Copy-14" stroke="#FFFDE2"></path>
                <ellipse id="Oval-3-Copy-15" fill="#FFFDE2" cx="6.49049421" cy="13.4513672" rx="1.98833357" ry="2.81296875"></ellipse>
                <ellipse id="Oval-3-Copy-14" fill="#FFFDE2" cx="21.8006627" cy="13.4513672" rx="1.98833357" ry="2.81296875"></ellipse>
                <ellipse id="Oval-2-Copy-17" stroke="#F2E42D" fill="#F2E42D" cx="42.081665" cy="16.2643359" rx="13.918335" ry="14.0648437"></ellipse>
                <path d="M48.4443324,19.0773047 C48.4443324,22.6282984 45.7737107,25.5069475 42.4793318,25.5069475 C39.1849528,25.5069475 36.5143311,22.6282984 36.5143311,19.0773047 L48.4443324,19.0773047 Z" id="Oval-2-Copy-16" stroke="#FFFDE2"></path>
                <ellipse id="Oval-2-Copy-13" stroke="#F2E42D" fill="#F2E42D" cx="26.7714966" cy="33.1421484" rx="13.918335" ry="14.0648437"></ellipse>
                <path d="M33.134164,35.9551172 C33.134164,39.5061109 30.4635422,42.38476 27.1691633,42.38476 C23.8747844,42.38476 21.2041626,39.5061109 21.2041626,35.9551172 L33.134164,35.9551172 Z" id="Oval-2-Copy-12" stroke="#FFFDE2"></path>
                <ellipse id="Oval-3-Copy-13" fill="#FFFDE2" cx="19.0169957" cy="31.7356641" rx="1.98833357" ry="2.81296875"></ellipse>
                <ellipse id="Oval-3-Copy-12" fill="#FFFDE2" cx="34.3271641" cy="31.7356641" rx="1.98833357" ry="2.81296875"></ellipse>
                <ellipse id="Oval-3-Copy-17" fill="#FFFDE2" cx="34.3271641" cy="14.8578516" rx="1.98833357" ry="2.81296875"></ellipse>
                <ellipse id="Oval-3-Copy-16" fill="#FFFDE2" cx="49.6373326" cy="14.8578516" rx="1.98833357" ry="2.81296875"></ellipse>
            </g>
        </g>
    </g>
</svg>
