
<svg width="52px" height="52px" viewBox="0 0 52 52" version="1.1" xmlns="http://www.w3.org/2000/svg" xmlns:xlink="http://www.w3.org/1999/xlink">
    <!-- Generator: Sketch 43.1 (39012) - http://www.bohemiancoding.com/sketch -->
    <desc>Created with Sketch.</desc>
    <defs></defs>
    <g id="Page-1" stroke="none" stroke-width="1" fill="none" fill-rule="evenodd">
        <g id="Mobile-Portrait-Copy" transform="translate(-281.000000, -150.000000)">
            <g id="FreetimeIcon" transform="translate(283.223193, 151.000000)">
                <circle id="Oval-2-Copy-10" stroke="#50E0E3" stroke-width="3" fill="#CDFEFF" cx="24.0712891" cy="25.0712891" r="24.0712891"></circle>
                <polygon id="Path-3" fill="#7DFDFF" points="23.5922852 25.4848633 23.5107422 0.319335938 32.8666992 2.71264648 41.0827637 7.76342773 45.956543 14.4213867 47.8278809 20.793457 48.0615234 26.6655273 47.1315918 32.9316406 44.0825195 38.0883789 43.8188477 38.4174805"></polygon>
                <circle id="Oval-2-Copy-20" stroke="#00CBCF" stroke-width="3" fill-opacity="0" fill="#FFE6C0" cx="24.0712891" cy="25.0712891" r="24.0712891"></circle>
                <path d="M35.5512156,25.5651095 C35.5512156,25.5651095 37.1093613,24.1751077 38.3004111,23.1042798 C39.4914609,22.0334519 39.2669398,22.1939119 40.621918,20.6764812 C41.9768962,19.1590505 41.9861836,18.6286739 41.9997381,17.5053329 C42.0132925,16.3819919 41.5001224,15.2195805 40.621918,14.6180083 C39.7437137,14.0164362 38.96341,14.0396739 38.1730122,14.0164362 C37.3826144,13.9931984 37.2290134,13.9666573 36.5442956,14.4981259 C35.8595779,15.0295945 35.5819962,16.0133965 35.5819962,16.0133965 C35.5819962,16.0133965 35.2947757,15.2537428 34.583516,14.7324906 C33.8722563,14.2112384 33.8036975,14.0891978 32.8571011,14.0164362 C31.9105048,13.9436745 31.5780335,14.1168557 30.9022616,14.4495249 C30.2264898,14.7821941 30.1672865,14.832556 29.7848411,15.2421138 C29.4023957,15.6516716 29.2759497,15.8840017 29.1045653,16.3746638 C28.9331809,16.865326 28.9560003,18.4775859 29.2968092,19.2858626 C29.637618,20.0941393 30.3016789,20.7987912 30.3016789,20.7987912 C30.3016789,20.7987912 30.556393,21.0607001 31.9920036,22.4746271 C33.4276142,23.8885541 35.5512156,25.5651095 35.5512156,25.5651095 Z" id="Path-2" fill="#00CACF"></path>
                <path d="M23.5,25.5 L23.5,6.5" id="Line" stroke="#00CACF" stroke-linecap="square"></path>
                <polygon id="Triangle-3" stroke="#00CACF" fill="#00CACF" points="23.5 4 25 7 22 7"></polygon>
                <polygon id="Triangle-3-Copy" stroke="#00CACF" fill="#00CACF" transform="translate(40.089093, 36.089093) rotate(125.000000) translate(-40.089093, -36.089093) " points="40.0890927 34.5890927 41.5890927 37.5890927 38.5890927 37.5890927"></polygon>
                <path d="M24,26 L40.1129138,36.068466" id="Line-Copy-4" stroke="#00CACF" stroke-linecap="square"></path>
            </g>
        </g>
    </g>
</svg>
