
<svg width="86px" height="49px" viewBox="0 0 86 49" version="1.1" xmlns="http://www.w3.org/2000/svg" xmlns:xlink="http://www.w3.org/1999/xlink">
    <!-- Generator: Sketch 43.1 (39012) - http://www.bohemiancoding.com/sketch -->
    <desc>Created with Sketch.</desc>
    <defs></defs>
    <g id="Page-1" stroke="none" stroke-width="1" fill="none" fill-rule="evenodd">
        <g id="Mobile-Portrait" transform="translate(-82.000000, -560.000000)" fill="#D0021B">
            <g id="TrendDown" transform="translate(82.000000, 558.000000)">
                <polygon transform="translate(37.086413, 26.153102) scale(1, -1) rotate(2.000000) translate(-37.086413, -26.153102) " points="72.386014 1.24956514 55.0004223 1.83699033 55.1178696 7.94519097 62.5185569 7.94519097 37.9675506 33.318706 25.8680291 20.9844793 0.847044866 46.7103359 5.07609012 51.0566393 25.9854764 29.5598279 38.0849978 42.0115018 67.0999438 12.2916834 67.5697327 19.9272652 73.3257808 19.4572872"></polygon>
                <polygon id="Triangle-4-Copy-5" transform="translate(46.292739, 48.343342) rotate(-26.000000) translate(-46.292739, -48.343342) " points="42.7732082 44.275471 52.4226223 52.4112132 40.1628567 47.4683421"></polygon>
                <polygon id="Triangle-4-Copy-8" transform="translate(48.292739, 42.343342) rotate(11.000000) translate(-48.292739, -42.343342) " points="44.7732082 38.275471 54.4226223 46.4112132 42.1628567 41.4683421"></polygon>
                <polygon id="Triangle-4-Copy-7" transform="translate(79.880210, 41.103835) rotate(86.000000) translate(-79.880210, -41.103835) " points="74.7348318 36.256856 85.0255875 45.9508145 74.9075347 41.3651063"></polygon>
                <polygon id="Triangle-4-Copy-6" transform="translate(80.201172, 49.181052) rotate(136.000000) translate(-80.201172, -49.181052) " points="75.9772905 46.1968516 84.4250533 52.1652531 76.1903142 50.2615859"></polygon>
            </g>
        </g>
    </g>
</svg>
