<!--
@Author: admin
@Date:   2017-05-03T03:55:16+02:00
@Last modified by:   admin
@Last modified time: 2017-05-10T11:58:37+02:00
-->



<svg width="52px" height="52px" viewBox="0 0 52 52" version="1.1" xmlns="http://www.w3.org/2000/svg" xmlns:xlink="http://www.w3.org/1999/xlink">
    <!-- Generator: Sketch 43.2 (39069) - http://www.bohemiancoding.com/sketch -->
    <desc>Created with Sketch.</desc>
    <defs>
        <linearGradient x1="50%" y1="33.2508418%" x2="50%" y2="157.799505%" id="linearGradient-1">
            <stop stop-color="#FFA1AB" offset="0%"></stop>
            <stop stop-color="#FF0026" offset="100%"></stop>
        </linearGradient>
    </defs>
    <g id="Page-1" stroke="none" stroke-width="1" fill="none" fill-rule="evenodd">
        <g id="Mobile-Portrait-Copy" transform="translate(-111.000000, -114.000000)">
            <g id="PlaceIcon" transform="translate(113.000000, 116.000000)">
                <circle id="Oval-2-Copy-18" stroke="#D0011B" stroke-width="3" fill="url(#linearGradient-1)" cx="24.0712891" cy="24.0712891" r="24.0712891"></circle>
                <g id="Maps" transform="translate(13.000000, 6.000000)" fill="#D0011B">
                    <path d="M21,10.5 C21,4.70101013 16.2989899,0 10.5,0 C4.70101013,0 0,4.70101013 0,10.5 L10.5024414,34.96875 L21,10.5 Z" id="Oval-4"></path>
                    <path d="M10.5,10.0432129 C10.5,10.0432129 21.0510254,29.019043 21.0510254,35 C21.0510254,35 0.0520019531,35 0.0520019531,35 C0.0520019531,28.5078125 10.5,10.0432129 10.5,10.0432129 Z" id="Triangle-2" transform="translate(10.551514, 22.521606) scale(1, -1) translate(-10.551514, -22.521606) "></path>
                </g>
                <circle id="Oval-3" fill="#FFA1AB" cx="23.5" cy="16.5" r="6.5"></circle>
            </g>
        </g>
    </g>
</svg>
