<!--
@Author: admin
@Date:   2017-05-03T03:55:16+02:00
@Last modified by:   admin
@Last modified time: 2017-05-10T11:58:36+02:00
-->



<svg width="52px" height="52px" viewBox="0 0 52 52" version="1.1" xmlns="http://www.w3.org/2000/svg" xmlns:xlink="http://www.w3.org/1999/xlink">
    <!-- Generator: Sketch 43.2 (39069) - http://www.bohemiancoding.com/sketch -->
    <desc>Created with Sketch.</desc>
    <defs>
        <linearGradient x1="50%" y1="0%" x2="50%" y2="147.924865%" id="linearGradient-1">
            <stop stop-color="#B3D0FF" offset="0%"></stop>
            <stop stop-color="#061A9F" offset="100%"></stop>
        </linearGradient>
        <linearGradient x1="50%" y1="0%" x2="50%" y2="133.977135%" id="linearGradient-2">
            <stop stop-color="#061A9F" offset="0%"></stop>
            <stop stop-color="#061A9F" offset="100%"></stop>
        </linearGradient>
    </defs>
    <g id="Page-1" stroke="none" stroke-width="1" fill="none" fill-rule="evenodd">
        <g id="Mobile-Portrait-Copy" transform="translate(-111.000000, -185.000000)">
            <g id="SocialIcon" transform="translate(113.000000, 187.000000)">
                <circle id="Oval-2-Copy-11" stroke="#061A9F" stroke-width="3" fill="url(#linearGradient-1)" cx="24.0712891" cy="24.0712891" r="24.0712891"></circle>
                <circle id="Oval-2-Copy-15" stroke="#061A9F" fill="url(#linearGradient-2)" cx="14.2331543" cy="20.8338501" r="10.2556152"></circle>
                <path d="M18.9214355,22.8849731 C18.9214355,25.4742394 16.953609,27.5732544 14.5261719,27.5732544 C12.0987348,27.5732544 10.1309082,25.4742394 10.1309082,22.8849731 L18.9214355,22.8849731 Z" id="Oval-2-Copy-14" stroke="#5F78D1"></path>
                <ellipse id="Oval-3-Copy-15" fill="#5F78D1" cx="8.51931152" cy="19.8082886" rx="1.46508789" ry="2.05112305"></ellipse>
                <ellipse id="Oval-3-Copy-14" fill="#5F78D1" cx="19.8004883" cy="19.8082886" rx="1.46508789" ry="2.05112305"></ellipse>
                <circle id="Oval-2-Copy-17" stroke="#061A9F" fill="url(#linearGradient-2)" cx="34.7443848" cy="21.8594116" r="10.2556152"></circle>
                <path d="M39.432666,23.9105347 C39.432666,26.4998009 37.4648394,28.5988159 35.0374023,28.5988159 C32.6099652,28.5988159 30.6421387,26.4998009 30.6421387,23.9105347 L39.432666,23.9105347 Z" id="Oval-2-Copy-16" stroke="#5F78D1"></path>
                <circle id="Oval-2-Copy-13" stroke="#061A9F" fill="url(#linearGradient-2)" cx="23.463208" cy="34.1661499" r="10.2556152"></circle>
                <path d="M28.1514893,36.2172729 C28.1514893,38.8065392 26.1836627,40.9055542 23.7562256,40.9055542 C21.3287885,40.9055542 19.3609619,38.8065392 19.3609619,36.2172729 L28.1514893,36.2172729 Z" id="Oval-2-Copy-12" stroke="#5F78D1"></path>
                <ellipse id="Oval-3-Copy-13" fill="#5F78D1" cx="17.7493652" cy="33.1405884" rx="1.46508789" ry="2.05112305"></ellipse>
                <ellipse id="Oval-3-Copy-12" fill="#5F78D1" cx="29.030542" cy="33.1405884" rx="1.46508789" ry="2.05112305"></ellipse>
                <ellipse id="Oval-3-Copy-17" fill="#5F78D1" cx="29.030542" cy="20.8338501" rx="1.46508789" ry="2.05112305"></ellipse>
                <ellipse id="Oval-3-Copy-16" fill="#5F78D1" cx="40.3117187" cy="20.8338501" rx="1.46508789" ry="2.05112305"></ellipse>
            </g>
        </g>
    </g>
</svg>
