
<svg width="90px" height="64px" viewBox="0 0 90 64" version="1.1" xmlns="http://www.w3.org/2000/svg" xmlns:xlink="http://www.w3.org/1999/xlink">
    <!-- Generator: Sketch 43.1 (39012) - http://www.bohemiancoding.com/sketch -->
    <desc>Created with Sketch.</desc>
    <defs></defs>
    <g id="Page-1" stroke="none" stroke-width="1" fill="none" fill-rule="evenodd">
        <g id="Mobile-Portrait" transform="translate(-82.000000, -467.000000)" fill="#75A73B">
            <g id="TrendUp" transform="translate(82.000000, 466.000000)">
                <polygon transform="translate(37.436075, 41.131432) rotate(2.000000) translate(-37.436075, -41.131432) " points="72.7356762 16.2278949 55.3500846 16.8153201 55.4675318 22.9235207 62.8682191 22.9235207 38.3172128 48.2970358 26.2176914 35.962809 1.19670709 61.6886657 5.42575235 66.034969 26.3351386 44.5381576 38.43466 56.9898316 67.449606 27.2700132 67.9193949 34.905595 73.675443 34.435617"></polygon>
                <polygon id="Triangle-4" points="54.6103516 7 64.2597656 15.1357422 52 10.1928711"></polygon>
                <polygon id="Triangle-4-Copy" transform="translate(64.356628, 6.800205) rotate(34.000000) translate(-64.356628, -6.800205) " points="60.8370966 2.73233385 70.4865106 10.868076 58.226745 5.92520494"></polygon>
                <polygon id="Triangle-4-Copy-3" transform="translate(78.606085, 30.541855) scale(-1, -1) rotate(36.000000) translate(-78.606085, -30.541855) " points="77.8072565 26.909298 84.7359679 34.1744123 72.4762023 29.2315412"></polygon>
                <polygon id="Triangle-4-Copy-2" transform="translate(83.654092, 23.445855) scale(-1, -1) rotate(-11.000000) translate(-83.654092, -23.445855) " points="82.30599 20.1083168 89.7839748 26.7833937 77.5242091 21.8405226"></polygon>
            </g>
        </g>
    </g>
</svg>
