<!--
@Author: admin
@Date:   2017-05-08T10:07:05+02:00
@Last modified by:   admin
@Last modified time: 2017-05-08T10:07:16+02:00
-->




<svg width="57px" height="57px" viewBox="0 0 57 57" version="1.1" xmlns="http://www.w3.org/2000/svg" xmlns:xlink="http://www.w3.org/1999/xlink">
    <!-- Generator: Sketch 43.2 (39069) - http://www.bohemiancoding.com/sketch -->
    <desc>Created with Sketch.</desc>
    <defs></defs>
    <g id="Page-1" stroke="none" stroke-width="1" fill="none" fill-rule="evenodd">
        <g id="Mobile-Portrait" transform="translate(-21.000000, -417.000000)">
            <g id="FreetimeIconOff" transform="translate(23.000000, 418.000000)">
                <polygon id="Path-3" fill="#FFFBC2" points="25.9996612 28.0333496 25.9097975 0.351269531 36.220444 2.98391113 45.2748824 8.53977051 50.6459861 15.8635254 52.7082769 22.8728027 52.9657605 29.3320801 51.9409379 36.2248047 48.5807358 41.8972168 48.2901586 42.2592285"></polygon>
                <ellipse id="Oval-2-Copy-20" stroke="#F2E42D" stroke-width="3" fill="#FFFDE2" cx="26.527543" cy="27.578418" rx="26.527543" ry="26.478418"></ellipse>
                <path d="M39.1788906,28.1216205 C39.1788906,28.1216205 40.8960309,26.5926185 42.2086163,25.4147078 C43.5212018,24.2367971 43.2737704,24.4133031 44.7670117,22.7441293 C46.260253,21.0749556 46.270488,20.4915412 46.2854256,19.2558662 C46.3003632,18.0201911 45.7348288,16.7415385 44.7670117,16.0798091 C43.7991947,15.4180798 42.9392681,15.4436413 42.0682175,15.4180798 C41.1971669,15.3925182 41.0278923,15.363323 40.2733054,15.9479385 C39.5187185,16.5325539 39.2128121,17.6147362 39.2128121,17.6147362 C39.2128121,17.6147362 38.8962835,16.7791171 38.1124462,16.2057397 C37.328609,15.6323623 37.2530543,15.4981176 36.2098665,15.4180798 C35.1666788,15.3380419 34.8002818,15.5285412 34.0555536,15.8944774 C33.3108255,16.2604135 33.245581,16.3158116 32.8241106,16.7663252 C32.4026402,17.2168387 32.2632915,17.4724018 32.0744189,18.0121302 C31.8855463,18.5518586 31.9106942,20.3253445 32.2862795,21.2144489 C32.6618648,22.1035533 33.3936869,22.8786704 33.3936869,22.8786704 C33.3936869,22.8786704 33.6743923,23.1667701 35.2564938,24.7220898 C36.8385953,26.2774095 39.1788906,28.1216205 39.1788906,28.1216205 Z" id="Path-2" fill="#F2E42D"></path>
                <path d="M25.5,28.05 L25.5,7.15" id="Line" stroke="#F2E42D" stroke-width="3" stroke-linecap="square"></path>
                <polygon id="Triangle-3" stroke="#F2E42D" stroke-width="3" fill="#F2E42D" points="25.8979592 4.4 27.5510204 7.7 24.244898 7.7"></polygon>
                <polygon id="Triangle-3-Copy" stroke="#F2E42D" stroke-width="3" fill="#F2E42D" transform="translate(44.179816, 39.698002) rotate(125.000000) translate(-44.179816, -39.698002) " points="44.1798165 38.048002 45.8328777 41.348002 42.5267552 41.348002"></polygon>
                <path d="M26.4489796,28.6 L44.2060683,39.6753126" id="Line-Copy-4" stroke="#F2E42D" stroke-width="3" stroke-linecap="square"></path>
            </g>
        </g>
    </g>
</svg>
