<!--
@Author: admin
@Date:   2017-05-08T10:10:06+02:00
@Last modified by:   admin
@Last modified time: 2017-05-08T10:10:14+02:00
-->




<svg width="29px" height="29px" viewBox="0 0 29 29" version="1.1" xmlns="http://www.w3.org/2000/svg" xmlns:xlink="http://www.w3.org/1999/xlink">
    <!-- Generator: Sketch 43.2 (39069) - http://www.bohemiancoding.com/sketch -->
    <desc>Created with Sketch.</desc>
    <defs></defs>
    <g id="Page-1" stroke="none" stroke-width="1" fill="none" fill-rule="evenodd">
        <g id="Mobile-Portrait" transform="translate(-141.000000, -528.000000)">
            <g id="FreetimeIconSmallOff" transform="translate(143.000000, 530.000000)">
                <polygon id="Path-3" fill="#FFFBC2" points="12.0368802 12.7424316 11.9952766 0.159667969 16.7687241 1.35632324 20.9605937 3.88171387 23.4472158 7.21069336 24.40198 10.3967285 24.5211854 13.3327637 24.0467305 16.4658203 22.4910814 19.0441895 22.3565549 19.2087402"></polygon>
                <ellipse id="Oval-2-Copy-20" stroke="#F2E42D" stroke-width="3" fill="#FFFDE2" cx="12.2812699" cy="12.5356445" rx="12.2812699" ry="12.0356445"></ellipse>
                <path d="M18.1383753,12.7825548 C18.1383753,12.7825548 18.9333476,12.0875539 19.5410261,11.5521399 C20.1487046,11.0167259 20.034153,11.0969559 20.7254684,10.3382406 C21.4167838,9.57952527 21.4215222,9.31433693 21.4284378,8.75266644 C21.4353533,8.19099594 21.1735318,7.60979023 20.7254684,7.30900415 C20.2774049,7.00821808 19.8792908,7.01983695 19.4760266,7.00821808 C19.0727624,6.9965992 18.9943946,6.98332865 18.6450488,7.24906294 C18.295703,7.51479724 18.1540797,8.00669825 18.1540797,8.00669825 C18.1540797,8.00669825 18.0075386,7.6268714 17.644651,7.36624531 C17.2817634,7.10561922 17.2467844,7.04459892 16.7638271,7.00821808 C16.2808698,6.97183723 16.1112416,7.05842784 15.76646,7.22476245 C15.4216785,7.39109706 15.3914727,7.41627802 15.1963475,7.62105691 C15.0012223,7.82583579 14.936709,7.94200083 14.849268,8.1873319 C14.761827,8.43266298 14.7734696,9.23879297 14.9473516,9.64293132 C15.1212337,10.0470697 15.4600402,10.3993956 15.4600402,10.3993956 C15.4600402,10.3993956 15.5899965,10.5303501 16.3224508,11.2373135 C17.0549052,11.944277 18.1383753,12.7825548 18.1383753,12.7825548 Z" id="Path-2" fill="#F2E42D"></path>
                <path d="M11.8055556,12.75 L11.8055556,3.25" id="Line" stroke="#F2E42D" stroke-width="3" stroke-linecap="square"></path>
                <polygon id="Triangle-3" stroke="#F2E42D" stroke-width="3" fill="#F2E42D" points="11.9897959 2 12.755102 3.5 11.2244898 3.5"></polygon>
                <polygon id="Triangle-3-Copy" stroke="#F2E42D" stroke-width="3" fill="#F2E42D" transform="translate(20.453619, 18.044546) rotate(125.000000) translate(-20.453619, -18.044546) " points="20.4536187 17.2945464 21.2189249 18.7945464 19.6883126 18.7945464"></polygon>
                <path d="M12.244898,13 L20.4657724,18.034233" id="Line-Copy-4" stroke="#F2E42D" stroke-width="3" stroke-linecap="square"></path>
            </g>
        </g>
    </g>
</svg>
