<!--
@Author: admin
@Date:   2017-05-08T10:07:52+02:00
@Last modified by:   admin
@Last modified time: 2017-05-10T10:46:42+02:00
-->

<svg width="69px" height="69px" viewBox="0 0 69 69" version="1.1" xmlns="http://www.w3.org/2000/svg" xmlns:xlink="http://www.w3.org/1999/xlink">
    <!-- Generator: Sketch 43.2 (39069) - http://www.bohemiancoding.com/sketch -->
    <desc>Created with Sketch.</desc>
    <defs></defs>
    <g id="Page-1" stroke="none" stroke-width="1" fill="none" fill-rule="evenodd">
        <g id="Mobile-Portrait" transform="translate(-8.000000, -399.000000)">
            <g id="LoveIconOff" transform="translate(10.000000, 401.000000)">
                <circle id="Oval-2-Copy-10" stroke="#F2E42D" stroke-width="3" fill="#FFFDE2" cx="32.4225526" cy="32.4225526" r="32.4225526"></circle>
                <path d="M31.8641066,54.2227896 C31.8641066,54.2227896 36.6356358,49.9661697 40.2830025,46.68696 C43.9303692,43.4077502 43.2428155,43.8991288 47.3921821,39.252282 C51.5415488,34.6054351 51.5699895,32.981256 51.6114975,29.5412349 C51.6530055,26.1012137 50.0815183,22.5415467 47.3921821,20.6993448 C44.702846,18.8571429 42.7491928,18.4173492 40.2830025,18.4885104 C37.8626922,18.5583479 37.0020478,18.7047045 34.9052281,20.3322273 C32.8084085,21.9597502 31.9583665,24.9724595 31.9583665,24.9724595 C31.9583665,24.9724595 31.0788077,22.6461624 28.9007082,21.0499254 C26.7226086,19.4536884 25.7595464,18.8462911 24.3820253,18.4885104 C22.740021,18.0620362 20.2355928,18.3658064 18.0669344,19.2017698 C17.009377,19.6094316 15.0177374,21.1015041 13.8465701,22.3556979 C12.6754028,23.6098918 12.6472816,24.576212 12.122449,26.0787729 C11.5976164,27.5813337 11.6674966,32.5185776 12.7111598,34.9937734 C13.754823,37.4689692 15.7883849,39.6268335 15.7883849,39.6268335 C15.7883849,39.6268335 16.5683992,40.4288803 20.9646875,44.7587666 C25.3609758,49.0886528 31.8641066,54.2227896 31.8641066,54.2227896 Z" id="Path-2" fill="#F2E42D"></path>
            </g>
        </g>
    </g>
</svg>
