<!--
@Author: admin
@Date:   2017-05-08T10:08:13+02:00
@Last modified by:   admin
@Last modified time: 2017-05-10T10:32:35+02:00
-->

<svg width="25px" height="24px" viewBox="0 0 25 24" version="1.1" xmlns="http://www.w3.org/2000/svg" xmlns:xlink="http://www.w3.org/1999/xlink">
    <!-- Generator: Sketch 43.2 (39069) - http://www.bohemiancoding.com/sketch -->
    <desc>Created with Sketch.</desc>
    <defs></defs>
    <g id="Page-1" stroke="none" stroke-width="1" fill="none" fill-rule="evenodd">
        <g id="Mobile-Portrait" transform="translate(-262.000000, -355.000000)">
            <g id="LoveLifeIconSmallOff" transform="translate(264.000000, 357.000000)">
                <ellipse id="Oval-2-Copy-21" stroke="#F2E42D" stroke-width="3" fill="#FFFDE2" cx="10.3162667" cy="10.1099414" rx="10.3162667" ry="10.1099414"></ellipse>
                <path d="M10.5590949,18.1550924 C10.5590949,18.1550924 12.3569554,16.5512442 13.7312436,15.3156735 C15.1055318,14.0801028 14.8464691,14.2652489 16.4099054,12.5143674 C17.9733418,10.7634858 17.984058,10.1515128 17.9996978,8.85535008 C18.0153375,7.5591874 17.4232182,6.21794345 16.4099054,5.52382173 C15.3965927,4.82970001 14.6604774,4.66399052 13.7312436,4.69080331 C12.8192969,4.7171173 12.4950154,4.77226287 11.7049565,5.38549586 C10.9148976,5.99872884 10.594611,7.13388504 10.594611,7.13388504 C10.594611,7.13388504 10.2632028,6.25736152 9.44251848,5.65591671 C8.62183418,5.05447189 8.25896276,4.82561117 7.73992773,4.69080331 C7.12123831,4.53011243 6.17759692,4.64456977 5.36046993,4.9595517 C4.96199377,5.11315425 4.21156554,5.67535099 3.7702824,6.14791765 C3.32899926,6.6204843 3.31840349,6.98458328 3.12065226,7.55073192 C2.92290103,8.11688057 2.94923115,9.97718054 3.34247213,10.9098075 C3.73571311,11.8424345 4.50193718,12.6554944 4.50193718,12.6554944 C4.50193718,12.6554944 4.79583813,12.9576969 6.4523119,14.5891511 C8.10878567,16.2206053 10.5590949,18.1550924 10.5590949,18.1550924 Z" id="LoveIconSmallOff" fill="#F3E42D"></path>
            </g>
        </g>
    </g>
</svg>
