<!--
@Author: admin
@Date:   2017-05-08T10:08:13+02:00
@Last modified by:   admin
@Last modified time: 2017-05-08T10:08:19+02:00
-->




<svg width="25px" height="22px" viewBox="0 0 25 22" version="1.1" xmlns="http://www.w3.org/2000/svg" xmlns:xlink="http://www.w3.org/1999/xlink">
    <!-- Generator: Sketch 43.2 (39069) - http://www.bohemiancoding.com/sketch -->
    <desc>Created with Sketch.</desc>
    <defs></defs>
    <g id="Page-1" stroke="none" stroke-width="1" fill="none" fill-rule="evenodd">
        <g id="Mobile-Portrait" transform="translate(-194.000000, -474.000000)" fill="#F3E42D">
            <path d="M206.31158,495.862297 C206.31158,495.862297 209.203416,493.282527 211.413941,491.295127 C213.624466,489.307727 213.207767,489.605533 215.722535,486.789262 C218.237302,483.972991 218.254539,482.98864 218.279695,480.903779 C218.304852,478.818917 217.352435,476.661543 215.722535,475.545057 C214.092634,474.428571 212.908602,474.16203 211.413941,474.205158 C209.947086,474.247484 209.425483,474.336185 208.154684,475.322562 C206.883884,476.30894 206.368707,478.134824 206.368707,478.134824 C206.368707,478.134824 205.835641,476.724947 204.515581,475.757531 C203.19552,474.790114 202.611846,474.421995 201.776985,474.205158 C200.781831,473.946689 199.263996,474.130792 197.949657,474.637436 C197.308713,474.884504 196.101659,475.78879 195.391861,476.548908 C194.682062,477.309025 194.665019,477.894674 194.346939,478.805317 C194.028858,479.71596 194.07121,482.708229 194.703733,484.208348 C195.336256,485.708466 196.568718,487.016263 196.568718,487.016263 C196.568718,487.016263 197.041454,487.502352 199.705871,490.126525 C202.370288,492.750699 206.31158,495.862297 206.31158,495.862297 Z" id="LoveIconSmallOff"></path>
        </g>
    </g>
</svg>
