
<svg width="52px" height="52px" viewBox="0 0 52 52" version="1.1" xmlns="http://www.w3.org/2000/svg" xmlns:xlink="http://www.w3.org/1999/xlink">
    <!-- Generator: Sketch 43.1 (39012) - http://www.bohemiancoding.com/sketch -->
    <desc>Created with Sketch.</desc>
    <defs></defs>
    <g id="Page-1" stroke="none" stroke-width="1" fill="none" fill-rule="evenodd">
        <g id="Mobile-Portrait-Copy" transform="translate(-28.000000, -146.000000)">
            <g id="LoveIcon" transform="translate(30.000000, 148.000000)">
                <circle id="Oval-2-Copy-10" stroke="#FF18C4" stroke-width="3" fill="#FFC6F1" cx="24.0712891" cy="24.0712891" r="24.0712891"></circle>
                <path d="M23.6566852,40.2563135 C23.6566852,40.2563135 27.1991842,37.0960957 29.9070776,34.6615309 C32.6149711,32.2269661 32.1045145,32.5917775 35.1851049,29.1418457 C38.2656953,25.6919139 38.2868104,24.486084 38.317627,21.9321289 C38.3484435,19.3781738 37.1817333,16.7353907 35.1851049,15.3676954 C33.1884766,14 31.7380371,13.6734865 29.9070776,13.7263184 C28.1101806,13.7781674 27.4712173,13.886826 25.9144875,15.0951385 C24.3577578,16.3034509 23.726666,18.5401593 23.726666,18.5401593 C23.726666,18.5401593 23.0736603,16.81306 21.4565864,15.6279749 C19.8395125,14.4428898 19.1245117,13.9919434 18.1018066,13.7263184 C16.8827429,13.4096935 15.0233947,13.6352199 13.4133301,14.2558594 C12.6281738,14.5585174 11.1495323,15.6662682 10.2800293,16.5974121 C9.41052631,17.528556 9.38964844,18.2459756 9,19.3615132 C8.61035156,20.4770508 8.66223235,24.1425803 9.43707321,25.9802257 C10.2119141,27.8178711 11.7216797,29.4199219 11.7216797,29.4199219 C11.7216797,29.4199219 12.3007813,30.0153809 15.5646922,33.2299934 C18.8286032,36.4446058 23.6566852,40.2563135 23.6566852,40.2563135 Z" id="Path-2" fill="#FF18C4"></path>
            </g>
        </g>
    </g>
</svg>
