<!--
@Author: admin
@Date:   2017-05-08T10:07:52+02:00
@Last modified by:   admin
@Last modified time: 2017-05-09T09:58:39+02:00
-->




<svg width="58px" height="53px" viewBox="0 0 58 53" version="1.1" xmlns="http://www.w3.org/2000/svg" xmlns:xlink="http://www.w3.org/1999/xlink">
    <!-- Generator: Sketch 43.2 (39069) - http://www.bohemiancoding.com/sketch -->
    <desc>Created with Sketch.</desc>
    <defs></defs>
    <g id="Page-1" stroke="none" stroke-width="1" fill="none" fill-rule="evenodd">
        <g id="Mobile-Portrait" transform="translate(-13.000000, -555.000000)" fill="#F3E42D">
            <path d="M41.8043747,607.484649 C41.8043747,607.484649 48.6552276,601.373091 53.8920336,596.664876 C59.1288395,591.956662 58.1416656,592.662172 64.0992316,585.990335 C70.0567977,579.318498 70.0976323,576.986539 70.1572285,572.047435 C70.2168248,567.108331 67.9605192,561.997442 64.0992316,559.352451 C60.2379441,556.707459 57.4329334,556.076013 53.8920336,556.178185 C50.4170071,556.278456 49.1813135,556.488592 46.1707476,558.825352 C43.1601818,561.162112 41.9397109,565.487692 41.9397109,565.487692 C41.9397109,565.487692 40.6768604,562.147647 37.5495947,559.855806 C34.4223291,557.563966 33.0395862,556.691878 31.0617728,556.178185 C28.7042204,555.565863 25.1084195,556.00201 21.9947092,557.202267 C20.4762924,557.787578 17.6167416,559.929862 15.9352063,561.730605 C14.253671,563.531348 14.2132952,564.918768 13.4597525,567.076111 C12.7062098,569.233454 12.8065423,576.322236 14.3050101,579.876066 C15.803478,583.429895 18.7232197,586.528108 18.7232197,586.528108 C18.7232197,586.528108 19.8431466,587.679668 26.1552371,593.89642 C32.4673276,600.113172 41.8043747,607.484649 41.8043747,607.484649 Z" id="LoveIconOff"></path>
        </g>
    </g>
</svg>
